<svg xmlns="http://www.w3.org/2000/svg" viewBox="0 0 256 256" aria-hidden="true">
  <defs><linearGradient id="g" x1="0" x2="1"><stop offset="0" stop-color="#25D366"/><stop offset="1" stop-color="#128C7E"/></linearGradient></defs>
  <circle cx="128" cy="128" r="116" fill="url(#g)"/>
  <path d="M66 197l11-39a77 77 0 1118 18l-39 11z" fill="#fff"/>
  <path d="M95 97c2-5 5-6 9-6h3c2 0 3 1 4 3l6 12c1 2 1 3-1 5l-4 5c-1 2-1 3 1 5 7 10 16 18 26 24 2 1 3 1 5-1l6-5c2-2 4-2 6-1l12 6c2 1 3 2 3 4v3c0 4-2 7-6 9-4 2-9 3-13 2-24-6-43-20-57-40-4-7-6-14-4-20z" fill="#25D366"/>
</svg>
